<svg height="500" viewBox="0 0 1000 500" width="1000" xmlns="http://www.w3.org/2000/svg"><g fill="none" fill-rule="evenodd"><g fill="#fff"><path d="m660 392.428973-.006339.378783c-.051584 1.563691-.451257 4.377393-2.383005 7.252611-3.185793 4.651516-10.064208 8.939633-22.590164 8.939633-1.448088 0-2.896175-.07268-4.416667-.14536l-.976568-.066568c-3.441946-.260399-12.59408-1.319542-18.282995-7.419466-1.954918-2.035038-3.040983-4.142756-4.344262-6.541195l5.357923-2.035038.229727.576394c.748636 1.822736 2.281956 4.934751 5.852241 7.34572 2.968579 1.962358 8.109289 3.779357 16.218579 3.779357l1.163687-.010478c2.817347-.061121 8.640924-.478782 13.461996-3.3328 3.113388-1.889678 5.430328-4.651516 5.430328-8.430873 0-2.979877-1.520492-4.651516-2.389344-5.378316-3.258197-2.689157-11.946722-3.633997-15.711749-4.142756-3.113388-.43608-6.226776-.79948-9.26776-1.235559l-1.904326-.292885c-2.83618-.442432-5.965124-1.010812-8.377094-2.250913l-.456879-.241254c-1.939686-1.075894-5.625089-3.79057-5.625089-9.279818 0-4.942236 3.185793-9.084993 7.312842-11.410751 4.371414-2.437807 10.53823-3.407125 15.569066-3.483669l1.022122-.003772c3.456679.023329 12.727219.451034 20.117828 6.539998 1.81011 1.526279 2.896175 2.834518 3.47541 3.561317l-4.63388 2.471118c-.434426-.581439-1.013661-1.308238-1.520491-1.889678-4.571819-4.659823-11.330073-6.164683-17.619805-6.246871l-.965773-.002347c-2.036681.015505-8.149737.222234-12.83792 2.978621-1.448087.872159-2.896175 2.107718-3.765027 3.633997-.289617.508759-.941257 1.889678-.941257 3.633997 0 3.633997 2.968579 5.014916 3.982241 5.523675 2.172131 1.017519 4.633879 1.380919 9.484972 2.035039l8.97959 1.260488c6.19347.88575 10.613033 1.653977 13.755383 3.027628 4.561475 1.962359 7.602459 5.814395 7.602459 10.901991z"/><path d="m556 393.9437-4.45953-2.099196-.47793.765378c-1.273804 2.012963-1.903821 2.7663-2.884994 3.86733-6.476743 7.24933-14.716078 7.987687-18.451012 8.032436l-.778243.000327c-3.141269-.036246-10.996124-.608849-17.031842-6.585042-5.792939-5.664996-6.408614-12.507634-6.432644-15.44538l.00251-.565516c.051026-2.941799.756391-9.937933 6.210813-15.47704 6.035718-6.115174 14.025324-6.826758 17.177373-6.8739l.703254-.000695c2.898268.036024 10.94402.603067 16.699007 6.440279 2.120105 2.099196 3.582246 4.705094 4.020888 5.428954l4.386423-2.38874-.706346-1.083258c-1.391379-2.103205-2.698354-3.849334-4.703576-5.648645-7.180736-6.482574-16.259649-7.259656-19.794683-7.308326l-.382862-.002666c-4.093995 0-15.206267.796247-23.101828 10.206434-5.556136 6.587132-5.994778 13.536193-5.994778 16.72118 0 8.758713 3.947781 16.72118 10.966057 21.86059l.474648.334472c3.266411 2.251072 8.60107 4.877324 17.582794 4.877324 9.796344 0 15.571801-3.402145 18.861618-5.790885 4.825066-3.546917 6.872063-7.16622 8.114883-9.265415z"/><path d="m449 407v-51h-5v51z"/><path d="m341 356 34.755014.001013c4.344368.018607 8.475531.320045 12.132626 3.032981 1.16854.939094 2.117978 2.022663 2.410113 2.456091.949438 1.228045 2.702247 4.117564 2.702247 8.451841l-.004638.38898c-.053991 2.240332-.648369 7.05153-5.253789 10.518952-3.711831 2.855524-8.394075 3.279454-12.828959 3.319447l-.828344.0035h-27.97191v22.827195h-5.11236zm34.764045 4.189802h-29.651685v19.793201l27.075337-.000942.716823-.004769c3.84664-.041264 8.037604-.380691 10.988738-3.172759l.231092-.222507c1.098837-1.098747 2.447535-3.052971 2.539242-6.288512l.004947-.351588c0-1.083569-.292135-5.490085-3.724719-7.873937-2.209269-1.523017-4.848119-1.832035-7.466513-1.872962z"/></g><path d="m716.043206 105.401745-18.664135 208.657834c-.295227 3.300531 2.141052 6.215469 5.441583 6.510697.492224.044029.988002.027077 1.476069-.050471l163.361725-25.956065c3.272656-.519983 5.504139-3.594525 4.984157-6.867182-.19636-1.235846-.774205-2.379375-1.652665-3.270545l-26.708666-27.095133c-1.380779-1.400759-3.454529-1.861858-5.298782-1.178187l-93.02349 34.484116-21.959484-185.349306c-.259913-2.193796-2.249036-3.761518-4.442832-3.501606-1.878946.222611-3.344909 1.731285-3.51348 3.615848z" fill="#ff5d72"/><path d="m576.906874 124.848759c1.265968.618373 2.273947 1.662533 2.847309 2.949512l71.597746 160.709443c1.348519 3.026906-.012083 6.573889-3.038989 7.922407-1.447554.644901-3.091456.690941-4.572835.128072l-71.643412-27.221858-72.843877 24.037154c-3.146809 1.03839-6.539584-.670822-7.577974-3.817632-.490646-1.48689-.380623-3.106674.306582-4.51356l76.90084-157.435705c1.45438-2.97749 5.04712-4.212213 8.02461-2.757833zm-3.861465 62.89176-23.642015 57.808032 39.880512-14.80712z" fill="#ffa07a"/><path d="m447.883777 102.580691c13.300408-.711326 25.742762 3.16226 35.70028 10.201286l.51282.366903c.63396.459045.775757 1.345101.316712 1.979061-.043335.059847-.091284.116214-.143419.168574l-40.871629 41.064578 54.020197 25.991565c.773968.372403 1.099512 1.301715.727119 2.075687l-.041884.080896-.046548.078305c-9.303213 14.655253-25.617007 24.809036-44.635972 25.826257-30.714319 1.642649-56.852842-21.164927-58.382069-50.942191-1.529144-29.777268 22.130079-55.248179 52.844393-56.890921z" fill="#ccff4a"/><path d="m317.969244 177.497247c38.659933 0 70 30.444637 70 68s-31.340067 68-70 68c-38.659932 0-70-30.444637-70-68s31.340068-68 70-68zm-21.145833 33.634409c-11.678521 0-21.145833 9.493489-21.145833 21.204301s9.467312 21.204301 21.145833 21.204301 21.145833-9.493489 21.145833-21.204301-9.467312-21.204301-21.145833-21.204301z" fill="#98d5fb"/><path d="m153.796471 322.172408-16.77519-199.917836c-.261196-3.112791 1.909641-5.905227 4.990705-6.419748l172.255513-28.7657489c2.723706-.4548445 5.300431 1.3844317 5.755275 4.1081384.361796 2.1665073-.732712 4.3154302-2.697805 5.2967871l-139.423437 69.6273294 26.263423 45.905342-40.689161 111.462227c-.946933 2.593989-3.817417 3.929192-6.411406 2.982259-1.829753-.667949-3.105044-2.337713-3.267917-4.27875z" fill="#dca1ff"/></g></svg>