<svg height="250" viewBox="0 0 500 250" width="500" xmlns="http://www.w3.org/2000/svg"><g fill="none" fill-rule="evenodd"><path d="m343.890738 74.7582533-6.24002 96.3166637c-.107117 1.653388 1.146383 3.080559 2.799771 3.187677.222178.014394.445268.00401.665148-.030959l77.388761-12.307808c1.09086-.173489 1.834536-1.198446 1.661047-2.289306-.065447-.411518-.257793-.792318-.550172-1.08921l-13.66407-13.875014c-.552445-.560974-1.382614-.745635-2.120766-.471738l-43.492847 16.138329-10.475267-85.7484656c-.200912-1.6446277-1.697017-2.8149903-3.341645-2.6140781-1.431973.1749337-2.536674 1.3443086-2.62994 2.783909z" fill="#ff5d72"/><path d="m287.479007 84.7763554c.425732.2066552.764392.5575789.955779.9903895l32.459537 73.4053371c.44671 1.010209-.010096 2.191276-1.020306 2.637987-.482625.213415-1.030037.227439-1.522957.039018l-32.746591-12.517575-33.281503 11.068095c-1.048129.348566-2.180374-.218543-2.52894-1.266672-.16467-.495157-.129295-1.035064.098576-1.504502l34.913807-71.9262142c.482347-.9936875 1.67891-1.4082107 2.672598-.9258634zm-1.116901 28.1697546-10.063468 25.508277 17.022581-5.85666z" fill="#ffa07a"/><path d="m228.570177 73.305721c5.641281-.3023884 10.947448 1.1899255 15.333479 3.9653147l.287488.1869736c.207171.1378361.445365.3020464.714583.4926307.450758.3191092.55749.9432089.238386 1.3939717-.031968.0451579-.067628.0875848-.106615.1268439l-18.533334 18.6630513 24.583785 11.8551941c.497458.239898.706258.837641.466364 1.335102-.018375.038104-.03915.075003-.062198.110476l-.289631.440115c-.229123.343231-.427657.627638-.595601.85322-4.405238 5.917075-11.417047 9.927857-19.485912 10.360395-14.147792.758361-26.187856-9.771207-26.892256-23.5184696-.704363-13.7472645 10.193673-25.5064142 24.341462-26.2648184z" fill="#ccff4a"/><path d="m168.512049 107.485075c18.088097 0 32.751397 14.225589 32.751397 31.773743 0 17.548153-14.6633 31.773743-32.751397 31.773743s-32.751396-14.22559-32.751396-31.773743c0-17.548154 14.663299-31.773743 32.751396-31.773743zm-9.893651 15.716045c-5.464112 0-9.893651 4.435936-9.893651 9.907941s4.429539 9.907941 9.893651 9.907941c5.464113 0 9.893651-4.435936 9.893651-9.907941s-4.429538-9.907941-9.893651-9.907941z" fill="#98d5fb"/><path d="m93.2062378 169.677116-9.2038276-87.5436976c-.1658264-1.5772847.9246814-3.0111463 2.4889565-3.2726211l75.5158823-12.6227829c1.634181-.27316 3.180387.830166 3.453547 2.4643476.217238 1.2996233-.438976 2.5888681-1.617583 3.1780197l-60.894074 30.4392003 12.223668 21.385908-14.160506 46.713786c-.640866 2.114139-2.8742393 3.308463-4.9883787 2.667597-1.5393922-.466641-2.6494964-1.810008-2.8176845-3.409757z" fill="#dca1ff"/></g></svg>