<?xml version="1.0" encoding="UTF-8"?>
<svg width="300px" height="120px" viewBox="0 0 300 120" version="1.1" xmlns="http://www.w3.org/2000/svg" xmlns:xlink="http://www.w3.org/1999/xlink">
    <path d="M32.8322347,101.0259 L31,18.8258706 L94.9633233,17 C95.5195677,16.9845485 95.9835144,17.4173208 96,17.9670472 C96.011705,18.3821019 95.7619585,18.7610267 95.3729196,18.9178358 L44.3333055,39.4902581 L52.9047162,61.1540612 L34.7599785,101.409168 C34.5335402,101.911534 33.9378992,102.137368 33.4295769,101.913583 C33.0734673,101.756809 32.8408204,101.411083 32.8322347,101.0259 Z" fill="#DCA1FF"></path>
    <path d="M132.807775,21.027042 C137.563729,20.7821069 141.993677,22.2146281 145.440903,24.7728011 L131.298321,38.4558761 L150,47.1208337 C146.929324,52.1287772 141.286598,55.632252 134.671416,55.972958 C124.334867,56.5052978 115.538248,49.1139537 115.023605,39.4639145 C114.508989,29.8138739 122.471227,21.559412 132.807775,21.027042 Z" fill="#CCFF4A"></path>
    <path d="M172.362714,21.0384329 C172.466224,21.0823491 172.550982,21.1610247 172.602226,21.2607573 L205.947148,86.1571594 C206.068062,86.3924854 205.974479,86.6808488 205.738124,86.801237 C205.626047,86.8583237 205.495951,86.8693573 205.375791,86.8319667 L174.13563,77.1108519 L143.655639,88.967057 C143.408352,89.0632472 143.129569,88.9416325 143.032958,88.6954231 C142.987177,88.5787522 142.989159,88.4488616 143.038477,88.3336289 L171.732035,21.2911129 C171.836112,21.0479384 172.118476,20.9348097 172.362714,21.0384329 Z M172.615986,48.2822964 L166.086772,67.5252187 L179.065922,62.7390562 L172.615986,48.2822964 Z" fill="#FFA07A"></path>
    <path d="M83.4545965,40 C96.1596643,40 110,44.4922718 110,59.9679838 L109.992644,63.6932667 C109.908574,78.5378261 108.864342,95.958325 95.9024495,95.998903 L93.379255,96 C79.901949,95.9539 65,94.8238831 65,80.2643333 C65,64.7886214 70.7495288,40 83.4545965,40 Z M85.5884357,53.8510923 C79.5849422,53.8510923 76.8681319,65.9276002 76.8681319,73.4670496 C76.8681319,81.006499 84.8237791,81.154062 91.4703882,81.1326092 C98.1169974,81.1111564 98.1318681,71.1185338 98.1318681,63.5790844 C98.1318681,56.039635 91.5919293,53.8510923 85.5884357,53.8510923 Z" fill="#98D5FB"></path>
    <path d="M212.000827,22.0396387 L214.922132,94 L271.108029,87.6839058 C271.659422,87.6219215 272.055883,87.1271826 271.99355,86.5788757 C271.973813,86.4052646 271.908639,86.2398352 271.80453,86.0990931 L262.216307,73.1369962 L228.434753,85.4651348 L213.98486,21.77944 C213.862731,21.2411712 213.324916,20.9032699 212.783618,21.0247163 C212.310577,21.1308484 211.981267,21.5578132 212.000827,22.0396387 Z" fill="#FF5D72"></path>
</svg>
