<?xml version="1.0" encoding="UTF-8"?>
<svg width="300px" height="150px" viewBox="0 0 300 150" version="1.1" xmlns="http://www.w3.org/2000/svg" xmlns:xlink="http://www.w3.org/1999/xlink">
    <path d="M32.8322347,101.0259 L31,18.8258706 L94.9633233,17 C95.5195677,16.9845485 95.9835144,17.4173208 96,17.9670472 C96.011705,18.3821019 95.7619585,18.7610267 95.3729196,18.9178358 L44.3333055,39.4902581 L52.9047162,61.1540612 L34.7599785,101.409168 C34.5335402,101.911534 33.9378992,102.137368 33.4295769,101.913583 C33.0734673,101.756809 32.8408204,101.411083 32.8322347,101.0259 Z" fill="#DCA1FF"></path>
    <path d="M132.807775,21.027042 C137.563729,20.7821069 141.993677,22.2146281 145.440903,24.7728011 L131.298321,38.4558761 L150,47.1208337 C146.929324,52.1287772 141.286598,55.632252 134.671416,55.972958 C124.334867,56.5052978 115.538248,49.1139537 115.023605,39.4639145 C114.508989,29.8138739 122.471227,21.559412 132.807775,21.027042 Z" fill="#CCFF4A"></path>
    <path d="M172.362714,21.0384329 C172.466224,21.0823491 172.550982,21.1610247 172.602226,21.2607573 L205.947148,86.1571594 C206.068062,86.3924854 205.974479,86.6808488 205.738124,86.801237 C205.626047,86.8583237 205.495951,86.8693573 205.375791,86.8319667 L174.13563,77.1108519 L143.655639,88.967057 C143.408352,89.0632472 143.129569,88.9416325 143.032958,88.6954231 C142.987177,88.5787522 142.989159,88.4488616 143.038477,88.3336289 L171.732035,21.2911129 C171.836112,21.0479384 172.118476,20.9348097 172.362714,21.0384329 Z M172.615986,48.2822964 L166.086772,67.5252187 L179.065922,62.7390562 L172.615986,48.2822964 Z" fill="#FFA07A"></path>
    <path d="M83.4545965,40 C96.1596643,40 110,44.4922718 110,59.9679838 L109.992644,63.6932667 C109.908574,78.5378261 108.864342,95.958325 95.9024495,95.998903 L93.379255,96 C79.901949,95.9539 65,94.8238831 65,80.2643333 C65,64.7886214 70.7495288,40 83.4545965,40 Z M85.5884357,53.8510923 C79.5849422,53.8510923 76.8681319,65.9276002 76.8681319,73.4670496 C76.8681319,81.006499 84.8237791,81.154062 91.4703882,81.1326092 C98.1169974,81.1111564 98.1318681,71.1185338 98.1318681,63.5790844 C98.1318681,56.039635 91.5919293,53.8510923 85.5884357,53.8510923 Z" fill="#98D5FB"></path>
    <path d="M212.000827,22.0396387 L214.922132,94 L271.108029,87.6839058 C271.659422,87.6219215 272.055883,87.1271826 271.99355,86.5788757 C271.973813,86.4052646 271.908639,86.2398352 271.80453,86.0990931 L262.216307,73.1369962 L228.434753,85.4651348 L213.98486,21.77944 C213.862731,21.2411712 213.324916,20.9032699 212.783618,21.0247163 C212.310577,21.1308484 211.981267,21.5578132 212.000827,22.0396387 Z" fill="#FF5D72"></path>
    <path d="M73,116 L83.6938503,116.000318 C85.0305791,116.006155 86.3017062,116.100724 87.4269663,116.951841 C87.7465668,117.213724 88.0129005,117.511419 88.1312711,117.669841 L88.1685393,117.72238 C88.4606742,118.107649 89,119.014164 89,120.373938 L88.9969179,120.5525 C88.971598,121.277148 88.7621723,122.736544 87.3820225,123.796034 C86.2399207,124.691885 84.7992302,124.824882 83.4346506,124.837429 L74.5730337,124.838527 L74.5730337,132 L73,132 L73,116 L83.6938503,116.000318 L73,116 Z M83.6966292,117.314448 L74.5730337,117.314448 L74.5730337,123.524079 L82.9039068,123.523784 C84.1453683,123.519647 85.540824,123.457602 86.505618,122.526912 C86.8651685,122.186969 87.3595506,121.529745 87.3595506,120.373938 L87.3559775,120.242357 C87.3319101,119.763853 87.1640449,118.576771 86.2134831,117.903683 C85.5337079,117.425873 84.7217541,117.328927 83.9160945,117.316087 L83.6966292,117.314448 Z" fill="#FFFFFF"></path>
    <polygon fill="#FFFFFF" points="124 132 124 116 122 116 122 132"></polygon>
    <path d="M176,126.981233 L174.56658,126.281501 L174.412959,126.536627 C174.003522,127.207615 173.801017,127.458727 173.48564,127.825737 C171.403829,130.242181 168.755472,130.4883 167.554957,130.503216 L167.304808,130.503325 C166.295114,130.491243 163.770339,130.300375 161.830287,128.308311 C159.968271,126.419979 159.770376,124.1391 159.762651,123.159851 L159.763459,122.971346 C159.77986,121.990746 160.006584,119.658701 161.759791,117.812332 C163.699843,115.773941 166.267931,115.536746 167.28109,115.521032 L167.507136,115.520801 C168.438722,115.532809 171.024856,115.721823 172.874674,117.66756 C173.556136,118.367292 174.02611,119.235925 174.167102,119.477212 L175.577023,118.680965 L175.349984,118.319879 C174.902755,117.618811 174.482656,117.036768 173.83812,116.436997 C171.530026,114.276139 168.611804,114.017112 167.475543,114.000889 L167.35248,114 C166.036554,114 162.464752,114.265416 159.926893,117.402145 C158.140992,119.597855 158,121.914209 158,122.975871 C158,125.895442 159.26893,128.549598 161.524804,130.262735 L161.677369,130.374225 C162.727287,131.124583 164.441999,132 167.328982,132 C170.477807,132 172.334204,130.865952 173.391645,130.069705 C174.942559,128.887399 175.600522,127.680965 176,126.981233 Z" fill="#FFFFFF"></path>
    <path d="M226,126.476324 L225.997847,126.602585 C225.980328,127.123816 225.84459,128.061716 225.188525,129.020122 C224.106557,130.570628 221.770492,132 217.516393,132 C217.02459,132 216.532787,131.975773 216.016393,131.951547 L215.684729,131.929357 C214.515766,131.842558 211.407494,131.48951 209.47541,129.456202 C208.811475,128.777856 208.442623,128.075283 208,127.275804 L209.819672,126.597458 L209.897692,126.789589 C210.151946,127.397168 210.672696,128.434506 211.885246,129.238162 C212.893443,129.892282 214.639344,130.497948 217.393443,130.497948 L217.788657,130.494455 C218.745492,130.474082 220.723311,130.334861 222.360656,129.383522 C223.418033,128.753629 224.204918,127.833017 224.204918,126.573231 C224.204918,125.579939 223.688525,125.022726 223.393443,124.780459 C222.286885,123.884073 219.336066,123.569127 218.057377,123.39954 C217,123.25418 215.942623,123.133047 214.909836,122.987687 L214.263084,122.890059 C213.299853,122.742582 212.237193,122.553122 211.418033,122.139755 L211.262866,122.059337 C210.604105,121.700705 209.352459,120.795813 209.352459,118.966064 C209.352459,117.318652 210.434426,115.937733 211.836066,115.16248 C213.320697,114.349878 215.415087,114.026772 217.123673,114.001257 L217.470809,114 C218.644775,114.007776 221.79326,114.150345 224.303279,116.179999 C224.918033,116.688759 225.286885,117.124839 225.483607,117.367105 L223.909836,118.190811 C223.762295,117.996998 223.565574,117.754732 223.393443,117.560918 C221.840749,116.007644 219.545493,115.506024 217.409358,115.478628 L217.08136,115.477846 C216.389657,115.483014 214.313525,115.551924 212.721311,116.470719 C212.229508,116.761439 211.737705,117.173292 211.442623,117.682052 C211.344262,117.851638 211.122951,118.311944 211.122951,118.893384 C211.122951,120.104716 212.131148,120.565023 212.47541,120.734609 C213.213115,121.073782 214.04918,121.194915 215.696721,121.412955 L218.746393,121.833118 C220.849836,122.128368 222.35082,122.384444 223.418033,122.842327 C224.967213,123.496447 226,124.780459 226,126.476324 Z" fill="#FFFFFF"></path>
</svg>
